# xmcd
#
# Track frame offsets:
#	150
#	7076
#	13365
#	19923
#	26754
#	32646
#	39801
#	47240
#	54750
#	62207
#	69795
#	78099
#	86148
#	93701
#	100713
#	108210
#	115558
#	123483
#	131067
#	139965
#	147284
#	154784
#	162070
#	169418
#	177496
#	184697
#	192117
#	199703
#	208300
#	215929
#	224875
#	231994
#	239572
#	246815
#	254197
#	261919
#	269085
#	276207
#	283032
#	290294
#	297276
#	301477
#	305214
#
# Disc length: 4160 seconds
#
# Revision: 1
# Processed by: cddbd v1.5.1PL0 Copyright (c) Steve Scherf et al.
# Submitted via: CDex 1.50Beta5
#
DISCID=a5103e2b
DTITLE=NHK出版 - NHKスタンダード40ハングル
DYEAR=1900
DGENRE=
TTITLE0=ハングル1
TTITLE1=ハングル2
TTITLE2=ハングル3
TTITLE3=ハングル4
TTITLE4=ハングル5
TTITLE5=ハングル6
TTITLE6=ハングル7
TTITLE7=ハングル8
TTITLE8=ハングル9
TTITLE9=ハングル10
TTITLE10=ハングル11
TTITLE11=ハングル12
TTITLE12=ハングル13
TTITLE13=ハングル14
TTITLE14=ハングル15
TTITLE15=ハングル16
TTITLE16=ハングル17
TTITLE17=ハングル18
TTITLE18=ハングル19
TTITLE19=ハングル20
TTITLE20=ハングル21
TTITLE21=ハングル22
TTITLE22=ハングル23
TTITLE23=ハングル24
TTITLE24=ハングル25
TTITLE25=ハングル26
TTITLE26=ハングル27
TTITLE27=ハングル28
TTITLE28=ハングル29
TTITLE29=ハングル30
TTITLE30=ハングル31
TTITLE31=ハングル32
TTITLE32=ハングル33
TTITLE33=ハングル34
TTITLE34=ハングル35
TTITLE35=ハングル36
TTITLE36=ハングル37
TTITLE37=ハングル38
TTITLE38=ハングル39
TTITLE39=ハングル40
TTITLE40=ハングル41
TTITLE41=ハングル42
TTITLE42=ハングル42
EXTD=
EXTT0=
EXTT1=
EXTT2=
EXTT3=
EXTT4=
EXTT5=
EXTT6=
EXTT7=
EXTT8=
EXTT9=
EXTT10=
EXTT11=
EXTT12=
EXTT13=
EXTT14=
EXTT15=
EXTT16=
EXTT17=
EXTT18=
EXTT19=
EXTT20=
EXTT21=
EXTT22=
EXTT23=
EXTT24=
EXTT25=
EXTT26=
EXTT27=
EXTT28=
EXTT29=
EXTT30=
EXTT31=
EXTT32=
EXTT33=
EXTT34=
EXTT35=
EXTT36=
EXTT37=
EXTT38=
EXTT39=
EXTT40=
EXTT41=
EXTT42=
PLAYORDER=
